<svg width="20" height="20" viewBox="0 0 20 20" fill="none" xmlns="http://www.w3.org/2000/svg">
<path d="M16.7597 16.76H13.9149V12.3047C13.9149 11.2424 13.8959 9.87473 12.4353 9.87473C10.9536 9.87473 10.7268 11.0323 10.7268 12.2274V16.7597H7.88209V7.59796H10.6131V8.85001H10.6513C10.9246 8.3827 11.3196 7.99827 11.7941 7.73765C12.2686 7.47704 12.8049 7.34999 13.3459 7.37004C16.2293 7.37004 16.7609 9.26663 16.7609 11.734L16.7597 16.76ZM4.67209 6.34569C3.76032 6.34584 3.02104 5.60679 3.02089 4.69501C3.02074 3.78324 3.75972 3.04396 4.67149 3.04381C5.58327 3.04359 6.32254 3.78264 6.32269 4.69441C6.32277 5.13226 6.14892 5.55222 5.83937 5.86189C5.52982 6.17156 5.10994 6.34559 4.67209 6.34569ZM6.09454 16.76H3.24672V7.59796H6.09447L6.09454 16.76ZM18.1779 0.401788H1.81722C1.04397 0.393088 0.409841 1.01251 0.400391 1.78576V18.2147C0.409541 18.9884 1.04359 19.6084 1.81714 19.6003H18.1779C18.9531 19.6099 19.5897 18.9899 19.6004 18.2147V1.78449C19.5894 1.00974 18.9528 0.390388 18.1779 0.400513" fill="#28A6FF"/>
</svg>
